
#light 0.0 0.0 0.0 1.0 1.0 1.0
#light 0.0 0.4 0.0 0.0 0.0 0.8
#light -0.8 -0.8 1.1 1.0 0.0 0.0
#light 0.8 -0.8 1.0 0.0 1.0 0.5
light 0.0 0.8 1.0 1.0 1.0 1.0
light -0.8 -0.8 1.1 1.0 1.0 1.0
#light 0.8 -0.3 1.0 1.0 1.0 1.0

eye 0 0
eye -0.4 0.4
eye -0.4 0.8

ia 0.5 0.0 0.5

#spe

# room
o
v 1 1 1
v -1 1 1
v -1 1 -1
v 1 1 -1
v 1 -1 1
v -1 -1 1
v -1 -1 -1
v 1 -1 -1

vn 0 -1 0
vn 0 1 0
vn 1 0 0
vn -1 0 0
vn 0 0 1

kd 0.0 0.5 0.0
ks 0.3 0.3 0.3
ka 0.3 0.3 0.3

f 1//1 2//1 3//1 4//1

kd 0.5 0.25 0.125
ks 0.3 0.3 0.3
ka 0.3 0.3 0.3

f 8//2 7//2 6//2 5//2

kd 0.5 0.0 0.0
ks 0.3 0.3 0.3
ka 0.3 0.3 0.3

f 2//3 6//3 7//3 3//3

kd 0.125 0.25 0.5
ks 0.3 0.3 0.3
ka 0.3 0.3 0.3

f 1//4 4//4 8//4 5//4

kd 0.0 0.5 0.5
ks 0.3 0.3 0.3
ka 0.3 0.3 0.3

f 3//5 7//5 8//5 4//5

# cube1
o
v 0.512 -0.400 0.667
v -0.067 -0.400 0.512
v 0.088 -0.400 -0.067
v 0.667 -0.400 0.088
v 0.512 -1.000 0.667
v -0.067 -1.000 0.512
v 0.088 -1.000 -0.067
v 0.667 -1.000 0.088

vn 0 1 0
vn 0 -1 0
vn -0.966 0.000 -0.259
vn 0.966 0.000 0.259
vn 0.259 0.000 -0.966
vn -0.259 0.000 0.966

kd 1.0 1.0 0.0
ks 0.3 0.3 0.3
ka 0.3 0.3 0.3


f 12//6 11//6 10//6 9//6
f 13//7 14//7 15//7 16//7
f 10//8 11//8 15//8 14//8
f 9//9 13//9 16//9 12//9
f 11//10 12//10 16//10 15//10
f 14//11 13//11 9//11 10//11



# cube2
o
v -0.033 0.000 -0.088
v -0.612 0.000 0.067
v -0.767 0.000 -0.512
v -0.188 0.000 -0.667
v -0.033 -1.000 -0.088
v -0.612 -1.000 0.067
v -0.767 -1.000 -0.512
v -0.188 -1.000 -0.667

vn 0 1 0
vn 0 -1 0
vn -0.966 0.000 0.259
vn 0.966 0.000 -0.259
vn -0.259 0.000 -0.966
vn 0.259 0.000 0.966

kd 1.0 0.0 1.0
ks 0.3 0.3 0.3
ka 0.3 0.3 0.3

f 20//12 19//12 18//12 17//12
f 21//13 22//13 23//13 24//13
f 18//14 19//14 23//14 22//14
f 17//15 21//15 24//15 20//15
f 19//16 20//16 24//16 23//16
f 22//17 21//17 17//17 18//17

#kd 0.0 0.6 0.3
#ks 0.3 0.3 0.3
#ka 0.3 0.3 0.3
kd 0.0 0.0 0.0
ks 1.0 1.0 1.0
ka 0.0 0.0 0.0

pn 100

spe

#kt 1.0 1.0 1.0 1.3
#sphere
o
fs 0.5 0.2 -0.5 0.4

